<mxfile host="app.diagrams.net" modified="2024-05-29T07:35:38.659Z" agent="Mozilla/5.0 (Windows NT 10.0; Win64; x64) AppleWebKit/537.36 (KHTML, like Gecko) Chrome/121.0.0.0 Safari/537.36 Edg/121.0.0.0" etag="I2bqaU1GrilyP7abf7-e" version="24.4.4" type="github">
  <diagram name="第 1 页" id="RQJT9_W7nKCL7t_LhvKY">
    <mxGraphModel dx="1042" dy="1704" grid="1" gridSize="10" guides="1" tooltips="1" connect="1" arrows="1" fold="1" page="1" pageScale="1" pageWidth="827" pageHeight="1169" math="0" shadow="0">
      <root>
        <mxCell id="0" />
        <mxCell id="1" parent="0" />
        <mxCell id="71UFe0D2XgaYJTmtANn3-2" value="&lt;pre style=&quot;font-family: 宋体, monospace; font-size: 11px;&quot;&gt;&lt;font style=&quot;font-size: 11px;&quot;&gt;&lt;span style=&quot;color: rgb(0, 128, 0);&quot;&gt;我的高校师资信息知识图谱有以下结构，为了回答问题&lt;/span&gt;&lt;span style=&quot;color: rgb(0, 0, 128); font-family: Bahnschrift;&quot;&gt;{&lt;/span&gt;&lt;span style=&quot;font-family: Bahnschrift;&quot;&gt;question&lt;/span&gt;&lt;span style=&quot;color: rgb(0, 0, 128); font-family: Bahnschrift;&quot;&gt;}&lt;/span&gt;&lt;span style=&quot;color: rgb(0, 128, 0);&quot;&gt;，&lt;/span&gt;&lt;/font&gt;我需要得到哪些信息&lt;span style=&quot;white-space: normal; color: rgb(0, 128, 0);&quot;&gt;，请构建&lt;/span&gt;&lt;span style=&quot;white-space: normal; color: rgb(0, 128, 0); font-family: Bahnschrift;&quot;&gt;Cypher&lt;/span&gt;&lt;span style=&quot;white-space: normal; color: rgb(0, 128, 0);&quot;&gt;查询命令:&lt;/span&gt;&lt;/pre&gt;&lt;pre style=&quot;font-family: 宋体, monospace; font-size: 11px;&quot;&gt;&lt;pre style=&quot;font-family: Bahnschrift;&quot;&gt;&lt;font style=&quot;font-size: 11px;&quot;&gt;&lt;span style=&quot;color: rgb(0, 128, 0);&quot;&gt;&quot;&quot;&quot;&lt;br&gt;&lt;/span&gt;&lt;span style=&quot;color: rgb(0, 128, 0); font-family: 宋体, monospace;&quot;&gt;知识图谱结构&lt;/span&gt;&lt;span style=&quot;color: rgb(0, 128, 0);&quot;&gt;:&lt;br&gt;&lt;/span&gt;&lt;span style=&quot;color: rgb(0, 128, 0);&quot;&gt;&lt;br&gt;&lt;/span&gt;&lt;span style=&quot;color: rgb(0, 128, 0); font-family: 宋体, monospace;&quot;&gt;关系类型&lt;/span&gt;&lt;span style=&quot;color: rgb(0, 128, 0);&quot;&gt;:&lt;br&gt;&lt;/span&gt;&lt;span style=&quot;color: rgb(0, 128, 0);&quot;&gt;- Teacher-[WORKS_AT]-&amp;gt;School&lt;br&gt;&lt;/span&gt;&lt;span style=&quot;color: rgb(0, 128, 0);&quot;&gt;- Teacher&lt;/span&gt;&lt;span style=&quot;color: rgb(0, 128, 0); font-family: 宋体, monospace;&quot;&gt;或者&lt;/span&gt;&lt;span style=&quot;color: rgb(0, 128, 0);&quot;&gt;Person-[LEADS/PARTICIPATED_IN]-&amp;gt;(&lt;/span&gt;&lt;span style=&quot;color: rgb(0, 128, 0);&quot;&gt;Thesis/&lt;/span&gt;&lt;span style=&quot;color: rgb(0, 128, 0);&quot;&gt;Patent/&lt;/span&gt;&lt;span style=&quot;color: rgb(0, 128, 0);&quot;&gt;ResearchProject/&lt;/span&gt;&lt;span style=&quot;color: rgb(0, 128, 0);&quot;&gt;Publication/&lt;/span&gt;&lt;span style=&quot;color: rgb(0, 128, 0);&quot;&gt;TeachingAchievement)&lt;br&gt;&lt;/span&gt;&lt;span style=&quot;color: rgb(0, 128, 0);&quot;&gt;- Teacher-[AFFILIATED_WITH]-&amp;gt;(Faculty/College/Department/ResearchInstitute)&lt;br&gt;&lt;/span&gt;&lt;span style=&quot;color: rgb(0, 128, 0);&quot;&gt;- Teacher-[HOLDS_POSITION]-&amp;gt;Position&lt;br&gt;&lt;/span&gt;&lt;span style=&quot;color: rgb(0, 128, 0);&quot;&gt;- Teacher-[HAS_DEGREE]-&amp;gt;Degree&lt;br&gt;&lt;/span&gt;&lt;span style=&quot;color: rgb(0, 128, 0);&quot;&gt;-&lt;/span&gt;&lt;span style=&quot;color: rgb(0, 128, 0); font-family: 宋体, monospace;&quot;&gt;教师指导学生：&lt;/span&gt;&lt;span style=&quot;color: rgb(0, 128, 0);&quot;&gt; Teacher-[MENTORS]-&amp;gt;Person&lt;br&gt;&lt;/span&gt;&lt;span style=&quot;color: rgb(0, 128, 0);&quot;&gt;- &lt;/span&gt;&lt;span style=&quot;color: rgb(0, 128, 0); font-family: 宋体, monospace;&quot;&gt;教育背景：&lt;/span&gt;&lt;span style=&quot;color: rgb(0, 128, 0);&quot;&gt;Teacher-[STUDIED_AT]-&amp;gt;School&lt;br&gt;&lt;/span&gt;&lt;span style=&quot;color: rgb(0, 128, 0);&quot;&gt;- &lt;/span&gt;&lt;span style=&quot;color: rgb(0, 128, 0); font-family: 宋体, monospace;&quot;&gt;工作经历：&lt;/span&gt;&lt;span style=&quot;color: rgb(0, 128, 0);&quot;&gt;Teacher-[WORKED_AT]-&amp;gt;(Work_Place)&lt;br&gt;&lt;/span&gt;&lt;span style=&quot;color: rgb(0, 128, 0);&quot;&gt;- &lt;/span&gt;&lt;span style=&quot;color: rgb(0, 128, 0); font-family: 宋体, monospace;&quot;&gt;研究方向：&lt;/span&gt;&lt;span style=&quot;color: rgb(0, 128, 0);&quot;&gt;Teacher-[HAS_INTEREST]-&amp;gt;ResearchInterest&lt;br&gt;&lt;/span&gt;&lt;span style=&quot;color: rgb(0, 128, 0);&quot;&gt;- &lt;/span&gt;&lt;span style=&quot;color: rgb(0, 128, 0); font-family: 宋体, monospace;&quot;&gt;合作关系：&lt;/span&gt;&lt;span style=&quot;color: rgb(0, 128, 0);&quot;&gt;Teacher|Person-[COLLABORATED_WITH/SUPERVISES]-&amp;gt;Teacher|Person&lt;br&gt;&lt;/span&gt;&lt;span style=&quot;color: rgb(0, 128, 0);&quot;&gt;- TeachingAchievement-[AWARDED_TO]-&amp;gt;Teacher|Person&lt;br&gt;&lt;/span&gt;&lt;span style=&quot;color: rgb(0, 128, 0);&quot;&gt;&lt;br&gt;&lt;/span&gt;&lt;span style=&quot;color: rgb(0, 128, 0);&quot;&gt;Teacher&lt;/span&gt;&lt;span style=&quot;color: rgb(0, 128, 0); font-family: 宋体, monospace;&quot;&gt;属性&lt;/span&gt;&lt;span style=&quot;color: rgb(0, 128, 0);&quot;&gt;:&lt;br&gt;&lt;/span&gt;&lt;span style=&quot;color: rgb(0, 128, 0);&quot;&gt;- &lt;/span&gt;&lt;span style=&quot;color: rgb(0, 128, 0); font-family: 宋体, monospace;&quot;&gt;基本信息：姓名（&lt;/span&gt;&lt;span style=&quot;color: rgb(0, 128, 0);&quot;&gt;name&lt;/span&gt;&lt;span style=&quot;color: rgb(0, 128, 0); font-family: 宋体, monospace;&quot;&gt;）、个人网址（&lt;/span&gt;&lt;span style=&quot;color: rgb(0, 128, 0);&quot;&gt;url&lt;/span&gt;&lt;span style=&quot;color: rgb(0, 128, 0); font-family: 宋体, monospace;&quot;&gt;）、职称（&lt;/span&gt;&lt;span style=&quot;color: rgb(0, 128, 0);&quot;&gt;professional_title&lt;/span&gt;&lt;span style=&quot;color: rgb(0, 128, 0); font-family: 宋体, monospace;&quot;&gt;）、性别（&lt;/span&gt;&lt;span style=&quot;color: rgb(0, 128, 0);&quot;&gt;gender&lt;/span&gt;&lt;span style=&quot;color: rgb(0, 128, 0); font-family: 宋体, monospace;&quot;&gt;）、联系信息（&lt;/span&gt;&lt;span style=&quot;color: rgb(0, 128, 0);&quot;&gt;contact_information&lt;/span&gt;&lt;span style=&quot;color: rgb(0, 128, 0); font-family: 宋体, monospace;&quot;&gt;）&lt;/span&gt;&lt;span style=&quot;color: rgb(0, 128, 0);&quot;&gt;&lt;br&gt;&lt;/span&gt;&lt;span style=&quot;color: rgb(0, 128, 0);&quot;&gt;- &lt;/span&gt;&lt;span style=&quot;color: rgb(0, 128, 0); font-family: 宋体, monospace;&quot;&gt;教育信息：毕业院校（&lt;/span&gt;&lt;span style=&quot;color: rgb(0, 128, 0);&quot;&gt;graduate_school&lt;/span&gt;&lt;span style=&quot;color: rgb(0, 128, 0); font-family: 宋体, monospace;&quot;&gt;）、硕士生导师还是博士生导师（&lt;/span&gt;&lt;span style=&quot;color: rgb(0, 128, 0);&quot;&gt;mentor&lt;/span&gt;&lt;span style=&quot;color: rgb(0, 128, 0); font-family: 宋体, monospace;&quot;&gt;）&lt;/span&gt;&lt;span style=&quot;color: rgb(0, 128, 0);&quot;&gt;&lt;br&gt;&lt;/span&gt;&lt;span style=&quot;color: rgb(0, 128, 0);&quot;&gt;- &lt;/span&gt;&lt;span style=&quot;color: rgb(0, 128, 0); font-family: 宋体, monospace;&quot;&gt;教学信息：课程信息（&lt;/span&gt;&lt;span style=&quot;color: rgb(0, 128, 0);&quot;&gt;course_information&lt;/span&gt;&lt;span style=&quot;color: rgb(0, 128, 0); font-family: 宋体, monospace;&quot;&gt;）、教学资源（&lt;/span&gt;&lt;span style=&quot;color: rgb(0, 128, 0);&quot;&gt;teaching_resources&lt;/span&gt;&lt;span style=&quot;color: rgb(0, 128, 0); font-family: 宋体, monospace;&quot;&gt;）&lt;/span&gt;&lt;span style=&quot;color: rgb(0, 128, 0);&quot;&gt;&lt;br&gt;&lt;/span&gt;&lt;span style=&quot;color: rgb(0, 128, 0);&quot;&gt;- &lt;/span&gt;&lt;span style=&quot;color: rgb(0, 128, 0); font-family: 宋体, monospace;&quot;&gt;荣誉与成就：奖项（&lt;/span&gt;&lt;span style=&quot;color: rgb(0, 128, 0);&quot;&gt;other_awards&lt;/span&gt;&lt;span style=&quot;color: rgb(0, 128, 0); font-family: 宋体, monospace;&quot;&gt;）、参与会议（&lt;/span&gt;&lt;span style=&quot;color: rgb(0, 128, 0);&quot;&gt;sessions&lt;/span&gt;&lt;span style=&quot;color: rgb(0, 128, 0); font-family: 宋体, monospace;&quot;&gt;）、荣誉奖项（&lt;/span&gt;&lt;span style=&quot;color: rgb(0, 128, 0);&quot;&gt;honors_awards&lt;/span&gt;&lt;span style=&quot;color: rgb(0, 128, 0); font-family: 宋体, monospace;&quot;&gt;）、&lt;/span&gt;&lt;/font&gt;&lt;/pre&gt;&lt;pre style=&quot;font-family: Bahnschrift;&quot;&gt;&lt;font style=&quot;font-size: 11px;&quot;&gt;&lt;span style=&quot;color: rgb(0, 128, 0); font-family: 宋体, monospace;&quot;&gt;研究成果（&lt;/span&gt;&lt;span style=&quot;color: rgb(0, 128, 0);&quot;&gt;research_achievements&lt;/span&gt;&lt;span style=&quot;color: rgb(0, 128, 0); font-family: 宋体, monospace;&quot;&gt;）、研究奖项（&lt;/span&gt;&lt;span style=&quot;color: rgb(0, 128, 0);&quot;&gt;research_awards&lt;/span&gt;&lt;span style=&quot;color: rgb(0, 128, 0); font-family: 宋体, monospace;&quot;&gt;）、科研活动（&lt;/span&gt;&lt;span style=&quot;color: rgb(0, 128, 0);&quot;&gt;scientific_research&lt;/span&gt;&lt;span style=&quot;color: rgb(0, 128, 0); font-family: 宋体, monospace;&quot;&gt;）、研究组（&lt;/span&gt;&lt;span style=&quot;color: rgb(0, 128, 0);&quot;&gt;research_group&lt;/span&gt;&lt;span style=&quot;color: rgb(0, 128, 0); font-family: 宋体, monospace;&quot;&gt;）&lt;/span&gt;&lt;span style=&quot;color: rgb(0, 128, 0);&quot;&gt;&lt;br&gt;&lt;/span&gt;&lt;span style=&quot;color: rgb(0, 128, 0);&quot;&gt;- &lt;/span&gt;&lt;span style=&quot;color: rgb(0, 128, 0); font-family: 宋体, monospace;&quot;&gt;其他信息：招生信息（&lt;/span&gt;&lt;span style=&quot;color: rgb(0, 128, 0);&quot;&gt;enrollment_info&lt;/span&gt;&lt;span style=&quot;color: rgb(0, 128, 0); font-family: 宋体, monospace;&quot;&gt;）、社会兼职（&lt;/span&gt;&lt;span style=&quot;color: rgb(0, 128, 0);&quot;&gt;social_positions&lt;/span&gt;&lt;span style=&quot;color: rgb(0, 128, 0); font-family: 宋体, monospace;&quot;&gt;）、个人简介（&lt;/span&gt;&lt;span style=&quot;color: rgb(0, 128, 0);&quot;&gt;profile&lt;/span&gt;&lt;span style=&quot;color: rgb(0, 128, 0); font-family: 宋体, monospace;&quot;&gt;）、个人信息（&lt;/span&gt;&lt;span style=&quot;color: rgb(0, 128, 0);&quot;&gt;personal_info&lt;/span&gt;&lt;span style=&quot;color: rgb(0, 128, 0); font-family: 宋体, monospace;&quot;&gt;）、&lt;/span&gt;&lt;/font&gt;&lt;/pre&gt;&lt;pre style=&quot;font-family: Bahnschrift;&quot;&gt;&lt;font style=&quot;font-size: 11px;&quot;&gt;&lt;span style=&quot;color: rgb(0, 128, 0);&quot;&gt;&quot;&quot;&quot;&lt;/span&gt;&lt;/font&gt;&lt;/pre&gt;&lt;pre style=&quot;font-family: Bahnschrift;&quot;&gt;&lt;font style=&quot;font-size: 11px;&quot;&gt;&lt;pre style=&quot;font-family: Bahnschrift;&quot;&gt;&lt;span style=&quot;color: rgb(0, 128, 0); font-family: 宋体, monospace;&quot;&gt;直接给出&lt;/span&gt;&lt;span style=&quot;color: rgb(0, 128, 0);&quot;&gt;Cypher&lt;/span&gt;&lt;span style=&quot;color: rgb(0, 128, 0); font-family: 宋体, monospace;&quot;&gt;查询命令，尽量分成几条简单命令。&lt;/span&gt;&lt;span style=&quot;color: rgb(0, 128, 0); font-family: 宋体, monospace;&quot;&gt;将每条查询命令都放入&lt;/span&gt;&lt;span style=&quot;color: rgb(0, 128, 0);&quot;&gt;```cypher(.*?)```&lt;/span&gt;&lt;span style=&quot;color: rgb(0, 128, 0); font-family: 宋体, monospace;&quot;&gt;中。&lt;/span&gt;&lt;/pre&gt;&lt;/font&gt;&lt;/pre&gt;&lt;/pre&gt;" style="rounded=0;whiteSpace=wrap;html=1;align=left;fillColor=none;" vertex="1" parent="1">
          <mxGeometry x="160" y="-520" width="660" height="430" as="geometry" />
        </mxCell>
      </root>
    </mxGraphModel>
  </diagram>
</mxfile>
